<?xml version="1.0" standalone="no"?>
<!DOCTYPE svg PUBLIC "-//W3C//DTD SVG 20010904//EN"
 "http://www.w3.org/TR/2001/REC-SVG-20010904/DTD/svg10.dtd">
<svg version="1.0" xmlns="http://www.w3.org/2000/svg"
 width="381.000000pt" height="250.000000pt" viewBox="0 0 381.000000 250.000000"
 preserveAspectRatio="xMidYMid meet">

<g transform="translate(0.000000,250.000000) scale(0.100000,-0.100000)"
fill="#000000" stroke="none">
<path d="M977 2189 c-45 -10 -117 -46 -117 -58 0 -4 17 -13 38 -19 74 -22 129
-99 449 -620 196 -321 231 -365 320 -410 74 -38 136 -44 393 -40 226 3 249 6
302 26 148 59 239 188 239 342 0 88 -28 155 -90 213 -45 42 -138 87 -181 87
-27 0 -25 12 6 41 38 35 56 86 57 154 1 111 -63 200 -179 246 -58 23 -67 24
-452 27 -452 4 -419 14 -316 -97 37 -41 68 -64 92 -71 21 -5 142 -10 270 -10
195 0 240 -3 268 -16 81 -39 100 -120 41 -179 -47 -47 -88 -55 -299 -55 -104
0 -188 -3 -188 -6 0 -9 40 -66 69 -97 54 -59 77 -65 306 -69 192 -3 213 -5
252 -26 140 -74 112 -247 -47 -281 -77 -17 -296 -14 -358 4 -70 21 -106 59
-194 205 -190 316 -392 628 -425 658 -60 54 -160 74 -256 51z"/>
<path d="M821 2067 c-10 -12 -81 -129 -377 -620 -96 -158 -190 -312 -209 -343
-19 -30 -35 -57 -35 -60 0 -4 44 -5 98 -2 119 5 174 27 220 91 17 24 130 209
252 411 220 366 221 368 209 403 -22 68 -132 151 -158 120z"/>
<path d="M1418 923 c294 -2 771 -2 1060 0 290 1 50 2 -533 2 -583 0 -820 -1
-527 -2z"/>
<path d="M1165 750 c-88 -3 -154 -9 -147 -13 15 -10 18 -287 2 -287 -5 0 -10
-4 -10 -10 0 -6 31 -10 72 -10 68 0 70 1 55 18 -11 12 -17 36 -17 70 l0 52 68
0 c40 0 73 -5 80 -12 9 -9 12 -3 12 28 l0 39 -80 -3 -80 -4 0 41 0 41 98 0
c63 0 102 -4 110 -12 9 -9 12 -4 12 24 0 20 -3 38 -7 40 -5 2 -80 1 -168 -2z"/>
<path d="M1523 751 c-87 -22 -143 -85 -143 -159 0 -62 30 -107 94 -139 42 -22
64 -26 127 -26 64 0 85 5 126 28 66 35 97 89 90 151 -6 57 -27 87 -81 119 -49
28 -154 41 -213 26z m152 -63 c85 -67 55 -194 -51 -214 -49 -9 -82 2 -121 41
-25 25 -33 41 -33 69 0 48 23 92 58 110 42 23 114 20 147 -6z"/>
<path d="M2826 749 c-157 -39 -200 -209 -73 -288 54 -33 140 -46 210 -31 65
13 119 51 101 70 -9 9 -20 8 -44 -5 -18 -10 -58 -19 -89 -22 -72 -6 -119 17
-145 71 -17 36 -18 43 -5 80 28 81 135 112 223 65 21 -11 39 -19 41 -17 2 2 0
19 -4 38 -5 28 -11 35 -31 37 -14 1 -52 4 -85 7 -33 3 -78 1 -99 -5z"/>
<path d="M295 590 l0 -160 64 0 c51 0 62 3 53 12 -17 17 -17 279 0 296 9 9 -2
12 -53 12 l-64 0 0 -160z"/>
<path d="M518 738 c17 -17 17 -279 0 -296 -9 -9 2 -12 52 -12 50 0 61 3 52 12
-8 8 -12 48 -12 112 l0 101 113 -113 c100 -100 116 -112 147 -112 l35 0 -3
141 c-4 123 -2 143 14 160 17 19 16 19 -46 19 -50 0 -61 -3 -52 -12 8 -8 12
-45 12 -102 l0 -91 -102 103 -101 102 -61 0 c-47 0 -57 -3 -48 -12z"/>
<path d="M1850 722 c0 -37 8 -44 30 -29 10 7 38 11 64 9 l46 -4 0 -122 c0 -82
-4 -126 -12 -134 -9 -9 3 -12 56 -12 57 0 67 2 57 14 -8 9 -11 55 -9 137 l3
124 50 -3 c28 -2 58 -6 68 -8 13 -4 17 1 17 25 l0 31 -185 0 -185 0 0 -28z"/>
<path d="M2288 738 c8 -8 12 -54 12 -142 0 -107 -3 -133 -17 -148 -16 -18 -11
-18 158 -16 l174 3 3 40 c3 38 3 39 -16 22 -15 -14 -38 -17 -115 -17 l-97 0 0
46 0 46 85 -3 85 -4 0 32 c0 33 -14 51 -25 33 -3 -5 -37 -10 -76 -10 l-69 0 0
40 0 40 94 0 c53 0 98 -4 101 -10 13 -21 25 -9 25 25 l0 35 -167 0 c-130 0
-164 -3 -155 -12z"/>
<path d="M3138 738 c15 -15 17 -274 2 -283 -25 -16 -4 -25 57 -25 52 0 64 3
55 12 -7 7 -12 38 -12 70 l0 58 85 0 85 0 0 -58 c0 -32 -5 -63 -12 -70 -9 -9
3 -12 55 -12 38 0 67 4 67 10 0 6 -4 10 -10 10 -15 0 -13 273 2 288 9 9 -3 12
-57 12 -54 0 -66 -3 -57 -12 7 -7 12 -36 12 -65 l0 -53 -85 0 -85 0 0 53 c0
29 5 58 12 65 9 9 -3 12 -57 12 -54 0 -66 -3 -57 -12z"/>
<path d="M130 296 c0 -10 136 -91 197 -116 362 -152 874 -169 1556 -50 66 11
124 21 130 21 7 1 -6 5 -28 9 -22 5 -49 11 -60 13 -11 3 -24 6 -28 6 -5 1 -5
6 -2 11 3 6 0 10 -7 10 -7 1 -2 7 12 15 l25 14 -25 1 c-14 0 -77 -7 -140 -14
-134 -17 -454 -42 -655 -51 -310 -15 -739 41 -927 119 -38 16 -48 19 -48 12z"/>
</g>
</svg>
