<?xml version="1.0" standalone="no"?>
<svg version="1.0" xmlns="http://www.w3.org/2000/svg"
 width="381.000000pt" height="200.000000pt" viewBox="0 0 381.000000 250.000000"
 preserveAspectRatio="xMidYMid meet">
<g transform="translate(0.000000,250.000000) scale(0.100000,-0.100000)"
fill="#000000" stroke="none">
<!-- A with red accent -->
<path d="M977 2189 c-45 -10 -117 -46 -117 -58 0 -4 17 -13 38 -19 74 -22 129
-99 449 -620 196 -321 231 -365 320 -410 74 -38 136 -44 393 -40 226 3 249 6
302 26 148 59 239 188 239 342 0 88 -28 155 -90 213 -45 42 -138 87 -181 87
-27 0 -25 12 6 41 38 35 56 86 57 154 1 111 -63 200 -179 246 -58 23 -67 24
-452 27 -452 4 -419 14 -316 -97 37 -41 68 -64 92 -71 21 -5 142 -10 270 -10
195 0 240 -3 268 -16 81 -39 100 -120 41 -179 -47 -47 -88 -55 -299 -55 -104
0 -188 -3 -188 -6 0 -9 40 -66 69 -97 54 -59 77 -65 306 -69 192 -3 213 -5
252 -26 140 -74 112 -247 -47 -281 -77 -17 -296 -14 -358 4 -70 21 -106 59
-194 205 -190 316 -392 628 -425 658 -60 54 -160 74 -256 51z"/>
<!-- Red part of A -->
<path fill="#E85D5D" d="M821 2067 c-10 -12 -81 -129 -377 -620 -96 -158 -190 -312 -209 -343
-19 -30 -35 -57 -35 -60 0 -4 44 -5 98 -2 119 5 174 27 220 91 17 24 130 209
252 411 220 366 221 368 209 403 -22 68 -132 151 -158 120z"/>
<!-- S in gold -->
<path fill="#F5B400" d="M1418 923 c294 -2 771 -2 1060 0 290 1 50 2 -533 2 -583 0 -820 -1
-527 -2z"/>
</g>
</svg>
